<svg width="75" height="75" viewBox="0 0 75 75" fill="none" xmlns="http://www.w3.org/2000/svg">
<rect width="75" height="75" rx="10" fill="#101418"/>
<path d="M65.08 38.3333C65.08 37.2933 64.9867 36.2933 64.8133 35.3333H51V41.0133H58.8933C58.5467 42.84 57.5067 44.3867 55.9467 45.4267V49.12H60.7067C63.48 46.56 65.08 42.8 65.08 38.3333Z" fill="#4285F4"/>
<path d="M51 52.6667C54.96 52.6667 58.28 51.36 60.7067 49.12L55.9467 45.4267C54.64 46.3067 52.9733 46.84 51 46.84C47.1867 46.84 43.9467 44.2667 42.7867 40.8H37.9067V44.5867C40.32 49.3733 45.2667 52.6667 51 52.6667Z" fill="#34A853"/>
<path d="M42.7866 40.7867C42.4933 39.9067 42.32 38.9733 42.32 38C42.32 37.0267 42.4933 36.0933 42.7866 35.2133V31.4267H37.9066C36.9066 33.4 36.3333 35.6267 36.3333 38C36.3333 40.3733 36.9066 42.6 37.9066 44.5733L41.7066 41.6133L42.7866 40.7867Z" fill="#FBBC05"/>
<path d="M51 29.1733C53.16 29.1733 55.08 29.92 56.6133 31.36L60.8133 27.16C58.2667 24.7867 54.96 23.3333 51 23.3333C45.2667 23.3333 40.32 26.6267 37.9067 31.4267L42.7867 35.2133C43.9467 31.7467 47.1867 29.1733 51 29.1733Z" fill="#EA4335"/>
<rect x="10" y="23" width="6.2" height="29.1" fill="#EA4335"/>
<rect width="5.1" height="18.7" transform="matrix(0 -1 -1 0 28.7 52.1)" fill="#FBBC05"/>
<rect x="10" y="47" width="6.2" height="5.1" fill="#4285F4"/>
</svg>
